<?xml version="1.0" encoding="UTF-8"?>
<!DOCTYPE svg PUBLIC "-//W3C//DTD SVG 1.1//EN" "http://www.w3.org/Graphics/SVG/1.1/DTD/svg11.dtd">
<!-- Creator: CorelDRAW X7 -->
<svg xmlns="http://www.w3.org/2000/svg" xml:space="preserve" width="495.01mm" height="345.045mm" version="1.1" style="shape-rendering:geometricPrecision; text-rendering:geometricPrecision; image-rendering:optimizeQuality; fill-rule:evenodd; clip-rule:evenodd"
viewBox="0 0 40480 28217"
 xmlns:xlink="http://www.w3.org/1999/xlink">
 <defs>
  <style type="text/css">
   <![CDATA[
    .str0 {stroke:black;stroke-width:0.81777}
    .str1 {stroke:black;stroke-width:0.81777}
    .str2 {stroke:red;stroke-width:0.81777}
    .str3 {stroke:black;stroke-width:6.2314}
    .fil0 {fill:none}
    .fil1 {fill:black}
   ]]>
  </style>
 </defs>
 <g id="Plan_x0020_1">
  <metadata id="CorelCorpID_0Corel-Layer"/>
  <polygon class="fil0 str0" points="0,0 2045,0 2045,409 4089,409 4089,0 5725,0 5725,409 7360,409 7360,0 8996,0 8996,409 10631,409 10631,0 12267,0 12267,409 14311,409 14311,0 16356,0 16356,2658 15947,2658 15947,5316 16356,5316 16356,6951 15947,6951 15947,9609 16356,9609 16356,12267 14311,12267 14311,11858 12267,11858 12267,12267 10631,12267 10631,11858 8996,11858 8996,12267 7360,12267 7360,11858 5725,11858 5725,12267 4089,12267 4089,11858 2045,11858 2045,12267 0,12267 0,9609 409,9609 409,6951 0,6951 0,5316 409,5316 409,2658 0,2658 "/>
  <rect class="fil0 str1" x="3954" y="3791" width="8448" height="4686" rx="78" ry="82"/>
  <circle class="fil0 str1" cx="8178" cy="9793" r="646"/>
  <circle class="fil1" cx="2576" cy="11327" r="286"/>
  <circle class="fil0 str2" cx="2576" cy="11327" r="143"/>
  <circle class="fil1" cx="941" cy="8055" r="286"/>
  <circle class="fil0 str2" cx="941" cy="8055" r="143"/>
  <circle class="fil1" cx="8178" cy="941" r="286"/>
  <circle class="fil0 str2" cx="8178" cy="941" r="143"/>
  <circle class="fil1" cx="15415" cy="4214" r="286"/>
  <circle class="fil0 str2" cx="15415" cy="4214" r="143"/>
  <circle class="fil1" cx="15415" cy="8055" r="286"/>
  <circle class="fil0 str2" cx="15415" cy="8055" r="143"/>
  <circle class="fil1" cx="13780" cy="941" r="286"/>
  <circle class="fil0 str2" cx="13780" cy="941" r="143"/>
  <circle class="fil1" cx="13780" cy="11327" r="286"/>
  <circle class="fil0 str2" cx="13780" cy="11327" r="143"/>
  <circle class="fil1" cx="941" cy="4214" r="286"/>
  <circle class="fil0 str2" cx="941" cy="4214" r="143"/>
  <circle class="fil1" cx="2576" cy="941" r="286"/>
  <circle class="fil0 str2" cx="2576" cy="941" r="143"/>
  <circle class="fil1" cx="8178" cy="11327" r="286"/>
  <circle class="fil0 str2" cx="8178" cy="11327" r="143"/>
  <g id="_742434592">
   <path class="fil0 str0" d="M16356 0l2044 0 0 409 2045 0 0 -409 1635 0 0 409 1636 0 0 -409 1635 0 0 409 1636 0 0 -409 1635 0 0 409 2045 0 0 -409 2044 0 0 2658 -409 0 0 2658 409 0 0 1635 -409 0 0 2658 409 0 0 2658 -2044 0 0 -409 -2045 0 0 409 -1635 0 0 -409 -1636 0 0 409 -1635 0 0 -409 -1636 0 0 409 -1635 0 0 -409 -2045 0 0 409 -2044 0m0 -2658l409 0 0 -2658 -409 0m0 -1635l409 0 0 -2658 -409 0"/>
   <g>
    <circle class="fil1" cx="31770" cy="8055" r="286"/>
    <circle class="fil0 str2" cx="31770" cy="8055" r="143"/>
   </g>
   <g>
    <circle class="fil1" cx="30135" cy="941" r="286"/>
    <circle class="fil0 str2" cx="30135" cy="941" r="143"/>
   </g>
   <g>
    <circle class="fil1" cx="30135" cy="11327" r="286"/>
    <circle class="fil0 str2" cx="30135" cy="11327" r="143"/>
   </g>
   <g>
    <circle class="fil1" cx="31770" cy="4214" r="286"/>
    <circle class="fil0 str2" cx="31770" cy="4214" r="143"/>
   </g>
   <g>
    <circle class="fil1" cx="18932" cy="941" r="286"/>
    <circle class="fil0 str2" cx="18932" cy="941" r="143"/>
   </g>
   <g>
    <circle class="fil1" cx="18932" cy="11327" r="286"/>
    <circle class="fil0 str2" cx="18932" cy="11327" r="143"/>
   </g>
   <g>
    <circle class="fil1" cx="17296" cy="8055" r="286"/>
    <circle class="fil0 str2" cx="17296" cy="8055" r="143"/>
   </g>
   <g>
    <circle class="fil1" cx="24533" cy="941" r="286"/>
    <circle class="fil0 str2" cx="24533" cy="941" r="143"/>
   </g>
   <g>
    <circle class="fil1" cx="17296" cy="4214" r="286"/>
    <circle class="fil0 str2" cx="17296" cy="4214" r="143"/>
   </g>
   <g>
    <circle class="fil1" cx="24533" cy="11327" r="286"/>
    <circle class="fil0 str2" cx="24533" cy="11327" r="143"/>
   </g>
  </g>
  <path class="fil0 str0" d="M33938 0l0 409 1635 0 0 -409 1220 0m416 0l0 409 1635 0 0 -409 1227 0 0 2658 409 0m0 2658l-409 0 0 1635 409 0m0 2658l-409 0 0 2658 -1227 0 0 -409 -1635 0 0 409 -1636 0 0 -409 -1635 0 0 409 -1227 0"/>
  <circle class="fil1" cx="39540" cy="4214" r="286"/>
  <circle class="fil0 str2" cx="39540" cy="4214" r="143"/>
  <circle class="fil1" cx="33243" cy="8055" r="286"/>
  <circle class="fil0 str2" cx="33243" cy="8055" r="143"/>
  <circle class="fil1" cx="39540" cy="8055" r="286"/>
  <circle class="fil0 str2" cx="39540" cy="8055" r="143"/>
  <circle class="fil1" cx="33243" cy="4214" r="286"/>
  <circle class="fil0 str2" cx="33243" cy="4214" r="143"/>
  <circle class="fil1" cx="36391" cy="941" r="286"/>
  <circle class="fil0 str2" cx="36391" cy="941" r="143"/>
  <circle class="fil1" cx="36391" cy="11327" r="286"/>
  <circle class="fil0 str2" cx="36391" cy="11327" r="143"/>
  <polyline class="fil0 str0" points="15947,12267 15947,13494 16356,13494 16356,15129 15947,15129 15947,16765 16356,16765 16356,18400 15947,18400 15947,19627 14311,19627 14311,20036 12267,20036 12267,19627 10631,19627 10631,20036 8996,20036 8996,19627 7360,19627 7360,20036 5725,20036 5725,19627 4089,19627 4089,20036 2045,20036 2045,19627 409,19627 409,18400 0,18400 0,16765 409,16765 409,15129 0,15129 0,13494 409,13494 409,12267 "/>
  <circle class="fil1" cx="8178" cy="12799" r="286"/>
  <circle class="fil0 str2" cx="8178" cy="12799" r="143"/>
  <circle class="fil1" cx="8178" cy="19095" r="286"/>
  <circle class="fil0 str2" cx="8178" cy="19095" r="143"/>
  <circle class="fil1" cx="2576" cy="12799" r="286"/>
  <circle class="fil0 str2" cx="2576" cy="12799" r="143"/>
  <circle class="fil1" cx="2576" cy="19095" r="286"/>
  <circle class="fil0 str2" cx="2576" cy="19095" r="143"/>
  <circle class="fil1" cx="13780" cy="19095" r="286"/>
  <circle class="fil0 str2" cx="13780" cy="19095" r="143"/>
  <circle class="fil1" cx="13780" cy="12799" r="286"/>
  <circle class="fil0 str2" cx="13780" cy="12799" r="143"/>
  <circle class="fil1" cx="15415" cy="15947" r="286"/>
  <circle class="fil0 str2" cx="15415" cy="15947" r="143"/>
  <circle class="fil1" cx="941" cy="15947" r="286"/>
  <circle class="fil0 str2" cx="941" cy="15947" r="143"/>
  <polyline class="fil0 str0" points="32302,12267 32302,13494 32711,13494 32711,15129 32302,15129 32302,16765 32711,16765 32711,18400 32302,18400 32302,19627 30667,19627 30667,20036 28622,20036 28622,19627 26987,19627 26987,20036 25351,20036 25351,19627 23716,19627 23716,20036 22080,20036 22080,19627 20445,19627 20445,20036 18400,20036 18400,19627 16765,19627 "/>
  <g id="_741086336">
   <circle class="fil1" cx="24533" cy="19095" r="286"/>
   <circle class="fil0 str2" cx="24533" cy="19095" r="143"/>
  </g>
  <g id="_741084768">
   <circle class="fil1" cx="18932" cy="19095" r="286"/>
   <circle class="fil0 str2" cx="18932" cy="19095" r="143"/>
  </g>
  <g id="_741085792">
   <circle class="fil1" cx="18932" cy="12799" r="286"/>
   <circle class="fil0 str2" cx="18932" cy="12799" r="143"/>
  </g>
  <g id="_741084512">
   <circle class="fil1" cx="30135" cy="19095" r="286"/>
   <circle class="fil0 str2" cx="30135" cy="19095" r="143"/>
  </g>
  <g id="_741069984">
   <circle class="fil1" cx="30135" cy="12799" r="286"/>
   <circle class="fil0 str2" cx="30135" cy="12799" r="143"/>
  </g>
  <g id="_741067136">
   <circle class="fil1" cx="31770" cy="15947" r="286"/>
   <circle class="fil0 str2" cx="31770" cy="15947" r="143"/>
  </g>
  <g id="_741067616">
   <circle class="fil1" cx="17296" cy="15947" r="286"/>
   <circle class="fil0 str2" cx="17296" cy="15947" r="143"/>
  </g>
  <g id="_741062432">
   <circle class="fil1" cx="24533" cy="12799" r="286"/>
   <circle class="fil0 str2" cx="24533" cy="12799" r="143"/>
  </g>
  <rect class="fil0 str1" x="17975" y="15293" width="6542" height="3271"/>
  <path class="fil0 str0" d="M16765 12267l0 1226 -409 0m0 1636l409 0 0 1636 -409 0m0 1635l409 0 0 522 0 705"/>
  <line class="fil0 str1" x1="32711" y1="0" x2="33938" y2= "0" />
  <line class="fil0 str1" x1="36793" y1="0" x2="37209" y2= "0" />
  <path class="fil0 str0" d="M135 26994l0 -416 409 0 0 -1635 -409 0m0 -1230l0 -406 409 0 0 -1636 -409 0m0 -1226l2658 0 0 -409m1310 0l1348 0 0 409 1635 0 0 -409m274 0l1633 0m751 0l0 409 2658 0 0 1226 -409 0 0 1636 409 0 0 1636 -409 0 0 1635 409 0 0 1227"/>
  <ellipse class="fil1" transform="matrix(2.50245E-014 -0.944873 1.05301 2.78885E-014 4348.97 20976.3)" rx="303" ry="272"/>
  <ellipse class="fil0 str2" transform="matrix(7.61625E-015 -0.287574 0.179039 4.74177E-015 4348.97 20976.3)" rx="498" ry="799"/>
  <ellipse class="fil1" transform="matrix(2.50245E-014 -0.944873 1.05301 2.78885E-014 8190.39 27273.2)" rx="303" ry="272"/>
  <ellipse class="fil0 str2" transform="matrix(7.61625E-015 -0.287574 0.179039 4.74177E-015 8190.39 27273.2)" rx="498" ry="799"/>
  <ellipse class="fil1" transform="matrix(2.50245E-014 -0.944873 1.05301 2.78885E-014 8190.39 20976.3)" rx="303" ry="272"/>
  <ellipse class="fil0 str2" transform="matrix(7.61625E-015 -0.287574 0.179039 4.74177E-015 8190.39 20976.3)" rx="498" ry="799"/>
  <ellipse class="fil1" transform="matrix(2.50245E-014 -0.944873 1.05301 2.78885E-014 4348.97 27273.2)" rx="303" ry="272"/>
  <ellipse class="fil0 str2" transform="matrix(7.61625E-015 -0.287574 0.179039 4.74177E-015 4348.97 27273.2)" rx="498" ry="799"/>
  <ellipse class="fil1" transform="matrix(2.50245E-014 -0.944873 1.05301 2.78885E-014 1075.72 24124.7)" rx="303" ry="272"/>
  <ellipse class="fil0 str2" transform="matrix(7.61625E-015 -0.287574 0.179039 4.74177E-015 1075.72 24124.7)" rx="498" ry="799"/>
  <ellipse class="fil1" transform="matrix(2.50245E-014 -0.944873 1.05301 2.78885E-014 11461.4 24124.7)" rx="303" ry="272"/>
  <ellipse class="fil0 str2" transform="matrix(7.61625E-015 -0.287574 0.179039 4.74177E-015 11461.4 24124.7)" rx="498" ry="799"/>
  <polyline class="fil0 str3" points="12402,27805 9744,27805 9744,28214 7086,28214 7086,27805 5451,27805 5451,28214 2793,28214 2793,27805 135,27805 "/>
  <line class="fil0 str1" x1="135" y1="26994" x2="135" y2= "27805" />
  <line class="fil0 str1" x1="135" y1="23713" x2="135" y2= "24943" />
  <line class="fil0 str1" x1="135" y1="20445" x2="135" y2= "21671" />
  <line class="fil0 str1" x1="40480" y1="2658" x2="40480" y2= "5316" />
  <line class="fil0 str1" x1="40480" y1="6951" x2="40480" y2= "9609" />
 </g>
</svg>
